<svg width="3797" height="1337" viewBox="0 0 3797 1337" fill="none" xmlns="http://www.w3.org/2000/svg">
<g style="mix-blend-mode:lighten">
<path d="M27.5117 910.082C275.55 930.837 450.605 996.852 565.326 1054C681.335 1111.8 764.886 1175.2 917.557 1209.29C1085.95 1247.16 1195.97 1230.2 1239.49 1220.65C1299.82 1207.4 1296.07 1198.38 1394.77 1167.63C1584.37 1108.54 1620.39 1134.83 1705.34 1095.67C1846.2 1030.75 1804.19 932.238 1951.52 822.971C2058.22 743.814 2234.86 680.829 2394.65 724.498C2545.13 765.629 2562.06 868.913 2720.37 883.57C2785.4 889.592 2839.49 876.222 2947.62 849.483C3086.2 815.396 3179.26 773.356 3216.52 758.585C3326.93 714.764 3505.13 687.192 3796 773.734" stroke="#4A3AFF" stroke-width="5" stroke-miterlimit="10"/>
<path d="M25.8452 876.677C265.779 894.591 445.151 954.357 570.288 1013.59C671.942 1062.37 749.471 1115.85 856.314 1154.07C879.682 1162.4 904.301 1170.47 930.813 1177.44C1097.88 1221.3 1207.48 1214.06 1253.24 1209.63C1314.59 1203.72 1314.59 1196.98 1411.32 1167.1C1479.5 1146.08 1528.05 1134.07 1565.66 1126.19C1629.59 1112.82 1661.6 1111.91 1712.04 1086.2C1730.87 1076.68 1748.53 1065.03 1764.69 1051.47C1839.42 988.785 1836.23 909.325 1960.2 825.092C2068.1 751.767 2243.57 696.32 2400.64 739.686C2413.08 743.129 2425.34 747.199 2437.37 751.881C2558.8 799.186 2586.07 882.396 2725.22 895.463C2739.88 896.861 2754.62 897.278 2769.34 896.712C2818.81 894.97 2869.94 882.623 2950.91 862.626C3085.06 829.296 3176.68 788.051 3217.77 771.727C3247.87 759.882 3278.91 750.583 3310.57 743.928C3420.1 720.597 3574.93 718.173 3792.74 777.711" stroke="#4A3AFF" stroke-width="5" stroke-miterlimit="10"/>
<path d="M24.1792 840.318C255.97 855.467 439.849 908.491 575.25 970.529C682.775 1019.77 763.901 1076.01 868.775 1116.16C892.712 1125.36 917.519 1134.68 944.145 1142.67C1109.88 1192.55 1218.92 1198.57 1267.1 1195.69C1329.17 1191.9 1333.3 1192.62 1427.91 1163.65C1494.15 1143.31 1542.52 1129.56 1579.41 1119.91C1641.56 1103.73 1671.44 1100.48 1718.64 1073.77C1736.62 1063.49 1753.52 1051.42 1769.08 1037.76C1841.27 975.491 1844.83 900.803 1968.95 824.145C2078.06 756.691 2252.36 708.78 2406.7 751.843C2419.76 755.631 2431.85 759.418 2443.17 763.963C2568.42 812.139 2596.14 891.486 2730.18 904.098C2744.73 905.531 2759.35 905.999 2773.96 905.499C2824.26 904.022 2875.32 892.016 2954.32 872.208C3084.08 839.787 3174.18 799.224 3219.14 781.726C3249 769.988 3279.75 760.666 3311.1 753.851C3419.64 729.99 3573.75 724.953 3789.41 778.583" stroke="#4A3AFF" stroke-width="5" stroke-miterlimit="10"/>
<path d="M22.5503 801.497C246.198 813.731 434.471 860.505 580.249 924.816C693.493 974.81 778.331 1033.63 881.16 1075.74C905.702 1085.82 930.737 1096.35 957.4 1105.4C1121.81 1161.23 1230.1 1172.93 1280.88 1179.29C1343.72 1187.13 1351.94 1185.81 1444.46 1157.74C1508.85 1138.16 1557.03 1122.63 1593.38 1111.2C1653.72 1092.26 1681.56 1086.58 1725.49 1058.93C1742.49 1047.86 1758.53 1035.38 1773.44 1021.62C1843.09 959.812 1853.62 889.934 1977.58 820.889C2088.06 759.305 2261.03 718.893 2412.64 761.691C2425.6 765.479 2437.6 769.266 2448.85 773.698C2577.85 822.934 2606.14 898.266 2734.99 910.802C2749.43 912.27 2763.96 912.789 2778.47 912.355C2829.6 911.181 2880.73 899.44 2957.65 880.011C3082.94 848.537 3171.6 808.693 3220.39 789.718C3250.06 778.158 3280.56 768.828 3311.63 761.805C3419.19 737.414 3572.58 729.726 3786.04 777.485" stroke="#4A3AFF" stroke-width="5" stroke-miterlimit="10"/>
<path d="M20.8838 762.6C236.426 771.993 429.017 812.442 585.21 879.063C704.211 929.853 792.723 991.285 893.582 1035.29C918.693 1046.24 943.917 1058.02 970.694 1068.09C1133.78 1129.75 1241.08 1150.74 1294.71 1162.78C1358.07 1177.02 1370.46 1178.88 1461.05 1151.72C1523.73 1132.78 1571.49 1115.59 1607.25 1102.48C1665.76 1080.82 1691.52 1072.64 1732.23 1044.08C1748.22 1032.26 1763.41 1019.38 1777.68 1005.53C1844.83 944.245 1862.33 879.139 1986.18 817.48C2098.02 761.804 2269.63 728.854 2418.55 771.349C2431.35 775.136 2443.28 778.924 2454.49 783.279C2587.28 833.538 2616.07 904.477 2739.76 917.165C2754.11 918.613 2768.53 919.182 2782.94 918.869C2834.83 917.96 2885.81 906.522 2960.95 887.471C3081.84 856.869 3169.03 817.707 3221.64 797.368C3251.1 785.921 3281.34 776.568 3312.12 769.379C3418.73 744.42 3571.41 734.156 3782.71 775.969" stroke="#4A3AFF" stroke-width="5" stroke-miterlimit="10"/>
<path d="M19.293 737.527C226.73 744.079 423.676 778.166 590.247 847.097C714.967 898.72 807.191 962.879 906.081 1008.63C931.722 1020.49 957.211 1033.36 984.064 1044.57C1145.75 1112.07 1252.18 1142.14 1308.49 1160.13C1372.43 1180.5 1389.2 1185.84 1477.6 1159.56C1526.42 1144.99 1574.34 1127.57 1621.11 1107.37C1677.92 1083.02 1701.52 1072.26 1738.9 1042.98C1755.22 1030.14 1768.17 1016.47 1782.19 1003.18C1846.84 942.578 1871.34 881.98 1994.97 827.895C2108.29 778.166 2278.45 752.639 2424.65 794.831C2437.34 798.618 2449.19 802.406 2460.33 806.685C2596.94 857.854 2626.22 925.043 2744.76 937.352C2758.99 938.804 2773.3 939.411 2787.6 939.17C2840.32 938.45 2891.22 927.429 2964.32 908.87C3080.78 879.253 3166.53 840.697 3222.92 818.995C3252.2 807.669 3282.2 798.306 3312.72 790.968C3418.36 765.44 3570.27 752.525 3779.41 788.468" stroke="#4A3AFF" stroke-width="5" stroke-miterlimit="10"/>
<path d="M17.5513 719.65C216.846 723.438 418.147 751.2 595.134 822.365C725.573 874.821 821.432 941.783 918.428 989.012C944.637 1001.81 970.316 1015.83 997.282 1028.1C1157.76 1101.31 1263.35 1140.43 1322.32 1164.45C1386.71 1190.77 1407.84 1199.78 1494.19 1174.41C1542.58 1160.19 1589.66 1141.86 1634.93 1119.64C1689.89 1092.67 1711.48 1079.27 1745.6 1048.97C1760.75 1035.6 1772.68 1021.36 1786.58 1007.91C1848.77 947.691 1880.32 892.319 2003.64 845.393C2118.51 801.686 2287.2 783.506 2430.67 825.433C2443.21 829.221 2454.95 833.008 2466.08 837.212C2606.52 889.176 2636.4 952.501 2749.65 964.356C2763.78 965.847 2777.98 966.504 2792.18 966.326C2845.66 965.871 2896.56 955.19 2967.65 936.859C3079.68 908.113 3163.95 870.276 3224.21 847.135C3253.29 835.953 3283.02 826.581 3313.26 819.07C3417.94 792.975 3569.13 777.409 3776.12 807.519" stroke="#4A3AFF" stroke-width="5" stroke-miterlimit="10"/>
<path d="M15.9224 701.509C207.074 702.38 412.655 723.968 600.133 797.369C736.253 850.696 835.711 920.536 930.813 969.469C957.59 983.294 983.534 998.443 1010.58 1011.7C1169.76 1090.55 1274.6 1138.58 1336.11 1168.88C1401.36 1200.99 1426.47 1213.8 1510.74 1189.33C1558.78 1175.26 1605.08 1155.85 1648.8 1131.46C1701.82 1101.95 1721.44 1085.74 1752.34 1054.69C1766.21 1040.75 1777.19 1026.05 1790.94 1012.34C1850.7 952.767 1889.41 902.318 2012.35 862.626C2128.81 825.017 2295.91 814.147 2436.54 855.733C2448.96 859.52 2460.63 863.308 2471.69 867.474C2615.95 920.498 2646.18 979.847 2754.42 991.626C2768.43 993.117 2782.52 993.825 2796.61 993.747C2850.92 993.747 2901.75 983.218 2970.83 965.19C3078.47 937.428 3161.23 900.197 3225.35 875.731C3254.22 864.644 3283.71 855.235 3313.67 847.552C3417.37 821.04 3567.85 802.823 3772.63 826.949" stroke="#4A3AFF" stroke-width="5" stroke-miterlimit="10"/>
<path d="M14.2559 683.291C197.302 681.322 407.201 696.661 605.094 772.296C746.933 826.494 849.989 899.25 943.235 949.661C970.505 964.394 996.752 980.566 1023.83 995.11C1181.77 1079.61 1285.92 1136.53 1349.93 1173.12C1415.98 1210.99 1445.11 1227.66 1527.33 1204.1C1575 1190.19 1620.54 1169.8 1662.66 1143.5C1714.05 1111.42 1731.36 1092.41 1759.05 1060.59C1771.66 1046.05 1781.77 1030.98 1795.33 1017C1852.67 958.031 1898.46 912.62 2021.02 880.048C2139.15 848.65 2304.63 844.939 2442.64 886.259C2454.95 890.047 2466.54 893.834 2477.52 897.887C2625.65 951.706 2656.29 1007.27 2759.42 1018.82C2773.33 1020.31 2787.32 1021.07 2801.31 1021.09C2856.42 1021.43 2907.36 1011.13 2974.36 993.482C3077.53 966.629 3158.84 930.042 3226.79 904.212C3255.45 893.201 3284.68 883.732 3314.35 875.844C3417.11 848.65 3566.86 827.933 3769.49 846.151" stroke="#4A3AFF" stroke-width="5" stroke-miterlimit="10"/>
<path d="M12.5894 665.149C187.531 660.453 401.823 669.581 610.131 747.412C757.841 802.519 864.268 878.23 955.734 930.042C983.534 945.798 1010.05 962.993 1037.2 978.597C1193.85 1068.62 1297.36 1134.41 1363.83 1177.47C1430.83 1220.92 1463.85 1241.6 1544 1218.95C1591.34 1205.09 1636.11 1183.62 1676.56 1155.39C1726.17 1120.85 1741.32 1098.89 1765.79 1066.35C1777.15 1051.2 1786.28 1035.79 1799.88 1021.51C1854.87 963.182 1907.82 923.035 2029.92 897.357C2149.72 872.246 2313.53 875.617 2448.85 916.635C2461.01 920.422 2472.52 924.21 2483.47 927.997C2635.42 982.65 2666.51 1034.42 2764.46 1045.67C2778.29 1047.25 2792.2 1048.06 2806.12 1048.1C2862.02 1048.48 2912.77 1038.74 2977.95 1021.58C3076.69 995.64 3156.53 959.698 3228.34 932.504C3254.28 922.657 3283.03 912.923 3315.19 904.212C3416.95 876.488 3565.99 853.119 3766.42 865.467" stroke="#4A3AFF" stroke-width="5" stroke-miterlimit="10"/>
<path d="M10.9229 647.538C177.57 639.963 396.218 642.842 615.017 722.832C768.256 778.848 878.357 857.589 968.081 910.764C996.373 927.543 1023.19 945.722 1050.42 962.463C1205.93 1058.02 1308.87 1132.63 1377.54 1182.13C1445.49 1231.37 1482.38 1255.84 1560.47 1234.1C1607.53 1220.27 1651.59 1197.77 1690.38 1167.74C1738.29 1130.7 1750.98 1105.74 1772.45 1072.56C1782.57 1056.81 1790.79 1041.01 1804.08 1026.47C1856.72 968.864 1916.79 933.754 2038.41 915.12C2160.02 896.486 2322.05 906.788 2454.65 947.502C2466.69 951.29 2478.13 955.077 2489 958.865C2644.81 1014.35 2676.36 1062.34 2769.27 1073.32C2782.96 1074.92 2796.73 1075.77 2810.51 1075.86C2867.32 1076.58 2917.92 1067.11 2980.95 1050.18C3075.29 1025.18 3153.61 989.846 3229.29 961.326C3255.12 951.555 3283.64 941.859 3315.41 932.959C3416.2 904.704 3564.51 878.723 3762.78 885.123" stroke="#4A3AFF" stroke-width="5" stroke-miterlimit="10"/>
<path d="M9.29443 630.153C167.95 619.662 390.726 616.443 620.017 698.554C779.089 755.366 892.484 837.326 980.466 891.713C1009.29 909.552 1036.41 928.678 1063.79 946.555C1218.09 1047.68 1320.5 1131 1391.33 1187.17C1460.37 1241.79 1501.16 1270.49 1576.91 1249.63C1627.21 1235.76 1672.88 1207.09 1704.13 1180.47C1750.37 1141 1760.94 1112.97 1779.08 1079.15C1787.87 1062.79 1795.22 1046.62 1808.32 1031.77C1858.66 974.961 1925.73 945.078 2046.93 933.299C2170.13 921.217 2330.61 938.336 2460.48 978.748C2472.37 982.536 2483.73 986.323 2494.56 990.111C2654.2 1046.47 2686.17 1090.67 2773.85 1101.35C2787.44 1102.97 2801.11 1103.87 2814.79 1104.04C2872.32 1105.13 2922.92 1095.89 2984.17 1079.3C3074.08 1055.22 3150.81 1020.52 3230.35 990.641C3256.06 980.983 3284.36 971.249 3315.72 962.235C3415.55 933.413 3563.15 904.818 3759.22 905.424" stroke="#4A3AFF" stroke-width="5" stroke-miterlimit="10"/>
<path d="M7.62793 612.996C158.178 599.627 385.083 590.726 624.978 674.542C789.466 732.717 906.573 817.328 992.889 873.041C1022.17 891.978 1049.7 912.014 1077.01 931.027C1230.25 1037.49 1332.17 1129.83 1405.15 1192.36C1475.33 1252.5 1519.61 1285.23 1593.61 1265.31C1642.13 1252.13 1687.58 1221.94 1718.1 1193.34C1762.68 1151.46 1770.71 1120.4 1785.9 1085.89C1793.47 1068.93 1799.88 1052.45 1812.83 1037.3C1860.85 981.097 1935.05 956.706 2055.79 951.441C2180.78 946.025 2339.51 969.848 2466.65 1009.99C2478.44 1013.76 2489.72 1017.54 2500.47 1021.36C2664.01 1078.47 2696.4 1118.96 2778.92 1129.34C2792.4 1131 2805.95 1131.95 2819.53 1132.18C2877.85 1133.58 2928.45 1124.6 2987.73 1108.39C3073.17 1085.25 3148.5 1051.01 3231.94 1019.92C3257.54 1010.3 3285.57 1000.64 3316.59 991.474C3415.44 962.084 3562.32 930.875 3756.23 925.497" stroke="#4A3AFF" stroke-width="5" stroke-miterlimit="10"/>
<path d="M5.96143 596.104C148.369 579.932 379.629 564.782 629.94 650.795C800.147 709.841 920.7 797.709 1005.31 854.521C1035.04 874.48 1062.88 895.501 1090.3 915.65C1242.44 1027.53 1344.06 1128.73 1418.94 1197.85C1490.33 1263.56 1538.24 1300.45 1610.01 1281.4C1656.79 1268.94 1702.05 1237.2 1731.78 1206.56C1774.76 1162.25 1780.26 1128.09 1792.38 1092.94C1798.51 1075.33 1804.23 1058.51 1816.96 1043.1C1862.97 987.649 1944.25 964.924 2064.5 970.037C2190.93 975.415 2348.26 1001.81 2472.71 1041.66C2484.38 1045.42 2495.56 1049.21 2506.27 1053.02C2673.75 1110.66 2706.47 1147.71 2783.85 1157.78C2797.22 1159.46 2810.67 1160.45 2824.15 1160.73C2883.27 1162.4 2933.98 1153.77 2991.1 1138.01C3071.96 1115.59 3145.96 1081.77 3233.23 1049.54C3258.72 1039.99 3286.52 1030.33 3317.12 1021.02C3415.02 991.058 3561.18 957.236 3752.9 945.949" stroke="#4A3AFF" stroke-width="5" stroke-miterlimit="10"/>
<path d="M4.14355 579.402C138.446 560.465 374.023 538.99 634.75 627.237C810.676 687.154 934.449 778.242 1017.54 836.341C1047.84 857.399 1075.98 879.29 1103.41 900.727C1254.52 1018.14 1355.57 1127.97 1432.61 1203.72C1505.37 1274.93 1556.99 1315.75 1626.75 1297.65C1671.75 1285.91 1716.82 1252.66 1745.79 1219.97C1787.19 1173.31 1790.03 1136.04 1799.31 1100.29C1804.08 1082.03 1809.04 1064.91 1821.58 1049.16C1865.13 994.466 1953.15 980.983 2073.18 988.861C2201.27 997.155 2356.93 1034.01 2478.66 1073.55C2490.02 1077.34 2501.38 1081.12 2511.95 1084.91C2683.25 1143.43 2716.47 1176.72 2788.7 1186.45C2801.95 1188.18 2815.29 1189.21 2828.65 1189.56C2888.57 1191.53 2939.09 1183.16 2994.39 1167.7C3071.01 1146.38 3143.39 1113.39 3234.48 1079.61C3259.89 1070.14 3287.5 1060.67 3317.8 1051.01C3414.72 1020.71 3560.19 984.089 3749.57 966.894" stroke="#4A3AFF" stroke-width="5" stroke-miterlimit="10"/>
<path d="M2.6665 562.889C128.826 541.035 368.683 513.387 639.901 603.831C821.697 664.619 948.576 759.115 1030.01 818.237C1060.61 840.431 1089.32 863.156 1116.74 885.653C1267.06 1008.06 1367.47 1127.29 1446.24 1209.55C1520.17 1286.48 1575.21 1331.24 1643.19 1313.97C1686.4 1302.95 1731.36 1268.18 1759.54 1233.49C1799.38 1184.25 1799.5 1144.11 1805.94 1107.67C1809.23 1088.74 1813.51 1071.35 1825.82 1055.29C1867.18 1001.36 1962.17 993.633 2081.74 1007.76C2211.38 1022.91 2365.57 1066.28 2484.53 1105.55C2495.89 1109.34 2506.99 1113.13 2517.55 1116.61C2692.72 1176 2726.32 1205.65 2793.43 1215.08C2806.68 1216.79 2820 1217.8 2833.35 1218.11C2888.91 1220.21 2944.44 1213.17 2997.72 1197.28C3069.91 1176.87 3140.81 1144.52 3235.76 1109.38C3261.06 1100.02 3288.41 1090.44 3318.22 1080.74C3457.57 1036.15 3600.85 1004.94 3746.12 987.535" stroke="#4A3AFF" stroke-width="5" stroke-miterlimit="10"/>
<path d="M1 546.489C119.054 521.795 363.229 487.898 644.862 580.576C832.226 642.235 962.476 739.913 1042.54 800.247C1397.92 1068.28 1510.4 1367.64 1659.89 1330.49C1701.33 1320.19 1746.17 1283.9 1773.51 1247.16C1831.92 1168.76 1795.1 1109.3 1830.33 1061.58C1916.68 944.548 2305.12 1075.25 2523.43 1148.69C2736.28 1220.31 2744.16 1243.38 2837.78 1247.16C3001.21 1253.87 3086.16 1188.23 3318.78 1110.82C3457.1 1065.01 3598.98 1030.8 3742.98 1008.56" stroke="#4A3AFF" stroke-width="5" stroke-miterlimit="10"/>
<path d="M1 535.657C122.198 508.653 358.798 477.709 628.046 566.411C813.895 627.805 938.615 726.43 1024.55 789.869C1367.84 1042.98 1474.91 1317.12 1627.21 1292.65C1686.71 1283.11 1747.12 1263.98 1787 1234.66C1865.36 1177.02 1836.23 1125.47 1881.68 1079.38C1981.18 978.407 2343.48 1091.77 2551.34 1159.14C2753.81 1225.01 2761.99 1243.64 2860.96 1239.85C3025.41 1233.57 3106.5 1175.47 3325.64 1101.16C3462.36 1054.82 3603.14 1021.46 3746.12 1001.51" stroke="#4A3AFF" stroke-width="5" stroke-miterlimit="10"/>
<path d="M1 524.37C203.121 477.842 414.105 487.336 611.23 551.829C795.564 612.921 914.527 712.568 1006.56 779.075C1337.32 1017.91 1440.87 1270.91 1594.56 1254.4C1672.54 1245.99 1745.87 1243.87 1800.48 1221.71C1894.18 1183.84 1875.93 1141.8 1933.04 1096.73C2042.16 1010.71 2381.85 1107.86 2579.29 1169.18C2771.05 1229.29 2779.57 1243.87 2884.18 1232.13C3049.23 1213.64 3126.84 1161.91 3332.49 1091.05C3467.59 1044.21 3607.23 1011.69 3749.11 994.012" stroke="#4A3AFF" stroke-width="5" stroke-miterlimit="10"/>
<path d="M1 504.297C197.235 457.211 402.694 465.577 594.452 528.461C777.233 589.287 890.477 689.957 988.571 759.494C1306.11 984.543 1407.91 1189.67 1561.87 1207.36C1658.19 1218.42 1743.37 1213.87 1814 1200.01C1920.73 1179.1 1914.52 1149.3 1984.44 1105.32C2100.18 1032.53 2420.29 1114.79 2607.2 1170.43C2788.54 1224.4 2796.99 1235.65 2907.36 1215.65C3072.94 1185.66 3147.14 1139.64 3339.39 1072.18C3472.87 1024.8 3611.41 993.097 3752.22 977.725" stroke="#4A3AFF" stroke-width="5" stroke-miterlimit="10"/>
<path d="M1 473.733C191.335 426.114 391.265 433.389 577.635 494.715C758.902 555.314 866.389 657.006 970.581 729.535C1274.67 941.215 1375.42 1126.76 1529.23 1149.94C1643.49 1167.13 1744.39 1193.42 1827.49 1167.93C1941.83 1132.86 1946.11 1130.43 2035.79 1103.54C2143.7 1021.7 2458.7 1111.46 2635.15 1161.3C2805.97 1209.4 2814.38 1217.36 2930.57 1188.76C3096.58 1147.89 3167.4 1106.84 3346.24 1042.95C3478.12 995.02 3615.58 964.155 3755.29 951.1" stroke="#4A3AFF" stroke-width="5" stroke-miterlimit="10"/>
<path d="M1 442.449C185.425 394.266 379.838 400.342 560.895 459.947C740.646 520.243 842.339 623.071 952.666 698.555C1243.01 897.243 1342.62 1064.91 1496.39 1091.5C1628.95 1114.38 1739.24 1150.66 1841.04 1134.79C1972.32 1114.34 1983.94 1122.37 2087.23 1100.7C2200.43 1027.87 2497.06 1107.41 2662.92 1151.15C2823.2 1193.38 2831.61 1198.42 2953.6 1160.85C3120.25 1109.64 3187.47 1072.94 3352.95 1012.68C3483.22 964.218 3619.62 934.183 3758.2 923.452" stroke="#4A3AFF" stroke-width="5" stroke-miterlimit="10"/>
<path d="M1 410.558C179.474 361.908 368.317 366.848 544.003 424.761C722.239 484.792 818.061 588.757 934.6 667.156C1211.08 853.157 1309.56 1003.86 1463.89 1032.64C1614.37 1060.71 1736.06 1083.74 1854.45 1101.27C2000.65 1122.94 2021.63 1113.96 2138.51 1097.48C2257.21 1033.44 2535.43 1102.79 2691.02 1140.59C2840.77 1176.94 2849.18 1179.29 2976.97 1132.52C3143.92 1071.39 3207.81 1038.48 3359.8 981.968C3488.48 932.979 3623.84 903.774 3761.27 895.349" stroke="#4A3AFF" stroke-width="5" stroke-miterlimit="10"/>
<path d="M1 378.252C142.006 337.461 332.4 323.713 527.225 389.122C704.06 448.509 793.86 554.064 916.61 635.305C1178.96 808.92 1276.42 943.223 1431.21 973.333C1599.98 1006.13 1734.2 1038.21 1867.97 1067.3C2028.18 1102.18 2063.03 1126.53 2189.9 1093.81C2321.37 1059.91 2573.8 1097.6 2718.93 1129.56C2858.16 1160.09 2866.64 1159.86 3000.15 1103.77C3167.93 1033.06 3228 1003.48 3366.85 950.835C3453.16 918.112 3583.37 875.314 3764.53 866.83" stroke="#4A3AFF" stroke-width="5" stroke-miterlimit="10"/>
<path d="M1 345.376C145.301 302.351 327.968 291.481 510.409 352.951C685.729 412.035 769.582 518.954 898.62 602.922C1146.66 764.38 1242.71 882.661 1398.56 913.491C1585.66 950.532 1732.69 991.928 1881.46 1032.79C2056.09 1080.78 2099.69 1117.29 2241.26 1089.61C2376.21 1063.09 2612.13 1092.18 2746.88 1118.01C2875.66 1142.71 2884.44 1140.43 3023.36 1074.46C3191.98 994.428 3248.11 967.802 3373.7 919.172C3458.77 886.221 3587.05 843.423 3767.59 837.742" stroke="#4A3AFF" stroke-width="5" stroke-miterlimit="10"/>
<path d="M1 312.123C148.71 266.674 323.537 258.872 493.592 316.365C667.397 375.146 745.229 483.466 880.629 570.123C1114.24 719.65 1209 822.062 1365.87 853.233C1571.49 894.099 1731.36 945.116 1894.94 997.875C2084.31 1058.93 2136.39 1106.76 2292.62 1084.99C2431.24 1065.67 2650.46 1086.16 2774.8 1106.04C2892.89 1124.98 2902.24 1120.63 3046.54 1044.73C3216.22 955.531 3268.18 931.595 3380.56 887.092C3464.41 853.877 3590.68 810.927 3770.66 808.276" stroke="#4A3AFF" stroke-width="5" stroke-miterlimit="10"/>
<path d="M1 278.377C151.853 230.769 319.144 225.807 476.776 279.324C649.066 337.839 720.8 447.675 862.639 536.869C1081.67 674.656 1172.56 779.681 1333.23 792.52C1561 810.738 1730.15 897.811 1908.42 962.5C2112.68 1036.58 2181.12 1132.93 2343.98 1079.91C2480.02 1035.48 2688.63 1079.91 2802.75 1093.62C2910.23 1106.69 2920.16 1100.51 3069.76 1014.58C3240.61 916.369 3288.18 894.781 3387.41 854.558C3470.02 821.04 3594.36 778.052 3773.73 778.317" stroke="#4A3AFF" stroke-width="5" stroke-miterlimit="10"/>
<path d="M1 243.533C155.148 193.615 314.712 191.721 459.998 240.958C630.735 299.208 696.296 410.71 844.649 502.29C1049.17 628.525 1138.82 715.03 1300.54 730.483C1546.72 754.079 1729.09 849.143 1921.94 925.801C2141.24 1012.91 2214.98 1115.59 2395.37 1073.51C2538.46 1040.11 2727.08 1072.07 2830.66 1079.87C2927.58 1087.18 2938.38 1079.23 3092.94 983.067C3265.15 875.958 3308.18 856.529 3394.31 820.7C3475.62 786.84 3598.03 743.89 3776.84 747.072" stroke="#4A3AFF" stroke-width="5" stroke-miterlimit="10"/>
<path d="M1 206.491C158.405 154.262 310.243 155.285 443.182 200.81C612.404 258.795 671.677 372.115 826.659 465.93C1016.26 580.727 1105.03 648.598 1267.89 666.664C1532.56 696.016 1728.1 798.656 1935.43 887.281C2169.94 987.535 2249.78 1094.38 2446.73 1065.29C2596.48 1043.17 2765.33 1062.64 2858.61 1064.34C2944.89 1065.93 2956.67 1056.24 3116.16 949.774C3289.81 833.841 3328.25 816.343 3401.16 785.021C3481.19 750.707 3601.89 707.909 3779.9 714.006" stroke="#4A3AFF" stroke-width="5" stroke-miterlimit="10"/>
<path d="M1 168.807C161.7 114.268 305.812 118.283 426.366 159.793C594.073 217.551 646.945 332.916 808.668 428.7C983.458 532.249 1071.14 581.372 1235.21 601.975C1518.2 637.501 1727.19 747.337 1948.91 847.931C2198.88 961.289 2285.46 1070.75 2498.09 1056.24C2654.13 1045.6 2803.62 1052.45 2886.53 1047.94C2962.12 1043.89 2975.08 1032.53 3139.34 915.612C3314.66 790.892 3347.95 774.985 3408.02 748.473C3486.68 713.591 3605.34 671.02 3782.97 680.072" stroke="#4A3AFF" stroke-width="5" stroke-miterlimit="10"/>
<path d="M1 127.789C164.996 70.9777 301.267 78.1738 409.55 115.48C575.628 173.352 622.024 290.724 790.678 388.175C950.583 480.588 1037.2 510.888 1202.56 533.991C1503.74 576.069 1726.36 692.684 1962.24 805.284C2227.36 931.747 2322.77 1026.62 2549.29 1043.89C2710.71 1056.16 2841.72 1038.97 2914.33 1028.25C2979.36 1018.63 2993.48 1005.53 3162.4 878.192C3339.43 744.648 3367.6 730.483 3414.72 708.705C3491.91 672.99 3608.86 630.911 3785.89 642.879" stroke="#4A3AFF" stroke-width="5" stroke-miterlimit="10"/>
<path d="M1 87.1875C168.253 28.0658 296.836 38.216 392.771 71.5454C557.297 129.152 596.876 249.327 772.688 348.028C917.67 429.42 1003.19 440.82 1169.88 466.385C1489.19 515.356 1725.57 638.448 1975.91 762.978C2256.53 902.621 2360.91 1005.37 2600.84 1031.89C2767.49 1050.22 2880.24 1026.09 2942.39 1008.93C2996.89 993.784 3012.31 979.013 3185.73 841.113C3364.65 698.857 3387.45 686.094 3421.76 669.24C3497.21 632.199 3612.69 591.181 3789.14 606.065" stroke="#4A3AFF" stroke-width="5" stroke-miterlimit="10"/>
<path d="M1 46.5483C171.434 -14.8459 292.632 -1.77926 375.955 27.6112C538.814 84.9529 571.462 208.537 754.698 307.881C884.758 378.403 969.142 370.752 1137.23 398.779C1474.5 455.022 1724.81 584.363 1989.4 720.711C2285.5 873.495 2399.16 984.278 2652.2 1019.92C2824.71 1044.19 2918.72 1013.4 2970.34 989.618C3014.39 969.317 3030.94 952.539 3208.95 804.034C3389.8 653.029 3407.03 641.553 3428.62 629.812C3501.6 590.082 3616.32 551.412 3792.21 569.213" stroke="#4A3AFF" stroke-width="5" stroke-miterlimit="10"/>
</g>
</svg>
